<svg width="96" height="96" xmlns="http://www.w3.org/2000/svg" xmlns:xlink="http://www.w3.org/1999/xlink" xml:space="preserve" overflow="hidden"><g transform="translate(-484 -561)"><path d="M540.11 584.47C547.862 586.906 554.029 592.825 556.78 600.47L553.7 598.64C552.791 598.013 551.545 598.242 550.918 599.152 550.291 600.061 550.52 601.307 551.43 601.933 551.516 601.993 551.606 602.045 551.7 602.09L558.7 606.24C559.055 606.524 559.495 606.68 559.95 606.68L560 606.68 560.16 606.68 560.24 606.68 560.24 606.68 560.4 606.68C560.912 606.547 561.351 606.216 561.62 605.76L566 598.39C566.478 597.394 566.058 596.2 565.062 595.722 564.174 595.296 563.109 595.579 562.55 596.39L560.7 599.54 560.7 599.54C558.388 592.785 553.739 587.079 547.59 583.45 545.606 582.282 543.496 581.343 541.3 580.65 540.245 580.321 539.124 580.91 538.795 581.965 538.466 583.02 539.055 584.141 540.11 584.47Z"/><path d="M503.14 616.16C503.354 617.064 504.161 617.702 505.09 617.7 505.245 617.699 505.4 617.679 505.55 617.64 506.607 617.37 507.252 616.302 507 615.24 505.475 608.7 506.551 601.823 510 596.06 510.799 594.708 511.716 593.43 512.74 592.24L512.8 592.3 512.8 595.96C512.8 597.065 513.695 597.96 514.8 597.96 515.905 597.96 516.8 597.065 516.8 595.96L516.88 587.48C516.88 586.375 515.985 585.48 514.88 585.48L506.39 585.4C505.285 585.4 504.39 586.295 504.39 587.4 504.39 588.505 505.285 589.4 506.39 589.4L509.94 589.4C508.65 590.821 507.498 592.361 506.5 594 502.543 600.669 501.338 608.617 503.14 616.16Z"/><path d="M550.22 628.15C544.141 633.885 535.681 636.358 527.47 634.8L527.47 634.8 530.65 633C531.608 632.448 531.937 631.223 531.385 630.265 530.833 629.307 529.608 628.978 528.65 629.53L521.3 633.7C520.339 634.245 520.003 635.466 520.548 636.427 520.549 636.428 520.549 636.429 520.55 636.43L524.76 643.8C525.312 644.761 526.539 645.092 527.5 644.54 528.461 643.988 528.792 642.761 528.24 641.8L526.45 638.68C536.014 640.605 545.917 637.759 553 631.05 553.832 630.324 553.918 629.06 553.192 628.228 552.466 627.396 551.203 627.31 550.37 628.036 550.329 628.072 550.289 628.11 550.25 628.15Z"/><path d="M518 626.64C518 631.058 514.418 634.64 510 634.64 505.582 634.64 502 631.058 502 626.64 502 622.222 505.582 618.64 510 618.64 514.418 618.64 518 622.222 518 626.64Z"/><path d="M566.5 619.8C566.5 624.218 562.918 627.8 558.5 627.8 554.082 627.8 550.5 624.218 550.5 619.8 550.5 615.382 554.082 611.8 558.5 611.8 562.918 611.8 566.5 615.382 566.5 619.8Z"/><path d="M536.75 581.61C536.75 586.028 533.168 589.61 528.75 589.61 524.332 589.61 520.75 586.028 520.75 581.61 520.75 577.192 524.332 573.61 528.75 573.61 533.168 573.61 536.75 577.192 536.75 581.61Z"/></g></svg>