<svg width="96" height="96" xmlns="http://www.w3.org/2000/svg" xmlns:xlink="http://www.w3.org/1999/xlink" xml:space="preserve" overflow="hidden"><g transform="translate(-663 -561)"><path d="M719.11 584.47C726.862 586.906 733.029 592.825 735.78 600.47L732.7 598.64C731.791 598.013 730.545 598.242 729.918 599.152 729.291 600.061 729.52 601.307 730.43 601.933 730.516 601.993 730.606 602.045 730.7 602.09L737.7 606.24C738.055 606.524 738.495 606.68 738.95 606.68L739 606.68 739.16 606.68 739.24 606.68 739.24 606.68 739.4 606.68C739.912 606.547 740.351 606.216 740.62 605.76L745 598.39C745.478 597.394 745.058 596.2 744.062 595.722 743.174 595.296 742.109 595.579 741.55 596.39L739.7 599.54 739.7 599.54C737.388 592.785 732.739 587.079 726.59 583.45 724.606 582.282 722.496 581.343 720.3 580.65 719.245 580.321 718.124 580.91 717.795 581.965 717.466 583.02 718.055 584.141 719.11 584.47Z" fill="#E6000D"/><path d="M682.14 616.16C682.354 617.064 683.161 617.702 684.09 617.7 684.245 617.699 684.4 617.679 684.55 617.64 685.607 617.37 686.252 616.302 686 615.24 684.476 608.7 685.551 601.823 689 596.06 689.799 594.708 690.716 593.43 691.74 592.24L691.8 592.3 691.8 595.96C691.8 597.065 692.695 597.96 693.8 597.96 694.905 597.96 695.8 597.065 695.8 595.96L695.88 587.48C695.88 586.375 694.985 585.48 693.88 585.48L685.39 585.4C684.285 585.4 683.39 586.295 683.39 587.4 683.39 588.505 684.285 589.4 685.39 589.4L688.94 589.4C687.65 590.821 686.498 592.361 685.5 594 681.543 600.669 680.338 608.617 682.14 616.16Z" fill="#E6000D"/><path d="M729.22 628.15C723.141 633.885 714.681 636.358 706.47 634.8L706.47 634.8 709.65 633C710.608 632.448 710.937 631.223 710.385 630.265 709.833 629.307 708.608 628.978 707.65 629.53L700.3 633.7C699.339 634.245 699.003 635.466 699.548 636.427 699.549 636.428 699.549 636.429 699.55 636.43L703.76 643.8C704.312 644.761 705.539 645.092 706.5 644.54 707.461 643.988 707.792 642.761 707.24 641.8L705.45 638.68C715.014 640.605 724.917 637.759 732 631.05 732.832 630.324 732.918 629.06 732.192 628.228 731.466 627.396 730.203 627.31 729.37 628.036 729.329 628.072 729.289 628.11 729.25 628.15Z" fill="#E6000D"/><path d="M697 626.64C697 631.058 693.418 634.64 689 634.64 684.582 634.64 681 631.058 681 626.64 681 622.222 684.582 618.64 689 618.64 693.418 618.64 697 622.222 697 626.64Z" fill="#E6000D"/><path d="M745.5 619.8C745.5 624.218 741.918 627.8 737.5 627.8 733.082 627.8 729.5 624.218 729.5 619.8 729.5 615.382 733.082 611.8 737.5 611.8 741.918 611.8 745.5 615.382 745.5 619.8Z" fill="#E6000D"/><path d="M715.75 581.61C715.75 586.028 712.168 589.61 707.75 589.61 703.332 589.61 699.75 586.028 699.75 581.61 699.75 577.192 703.332 573.61 707.75 573.61 712.168 573.61 715.75 577.192 715.75 581.61Z" fill="#E6000D"/></g></svg>