<svg width="96" height="96" xmlns="http://www.w3.org/2000/svg" xmlns:xlink="http://www.w3.org/1999/xlink" xml:space="preserve" overflow="hidden"><g transform="translate(-663 -371)"><path d="M736.044 395.861C734.026 394.987 731.857 394.515 729.659 394.472 728.804 394.446 727.95 394.557 727.13 394.801L716.089 421.743C716.9 421.504 717.744 421.396 718.589 421.422 720.797 421.466 722.974 421.94 725 422.818 731.265 425.385 735.763 431.668 744.083 431.668 744.709 431.668 745.334 431.635 745.956 431.568L757 404.608C745.742 404.092 742.763 398.614 736.044 395.861ZM732.975 424.054C732.792 423.928 732.605 423.802 732.421 423.676L735.154 417.005 734.388 416.516C732.695 415.384 730.928 414.365 729.1 413.467L726.363 420.147C726.286 420.115 726.215 420.074 726.138 420.047 724.38 419.31 722.532 418.809 720.643 418.557L723.425 411.769C725.043 411.963 726.625 412.385 728.125 413.022 728.462 413.16 728.779 413.322 729.101 413.472L731.966 406.481C731.645 406.333 731.317 406.19 730.981 406.052 729.484 405.433 727.928 404.969 726.336 404.667L729.279 397.485C729.398 397.485 729.527 397.477 729.664 397.477 731.472 397.522 733.254 397.917 734.911 398.641 734.989 398.673 735.059 398.713 735.136 398.741L731.966 406.477C734.077 407.482 736.112 408.639 738.055 409.939L741.179 402.316C743.103 403.641 745.161 404.759 747.319 405.654L744.141 413.409C742.107 412.44 740.144 411.328 738.268 410.081L738.047 409.939 735.159 417.006C737.109 418.293 739.151 419.433 741.269 420.418L738.419 427.36C736.512 426.417 734.691 425.311 732.975 424.054ZM742.241 420.826C741.908 420.689 741.604 420.541 741.286 420.397L744.147 413.441C745.839 414.207 747.607 414.793 749.422 415.187L746.535 422.234C745.073 421.865 743.638 421.395 742.241 420.826Z" fill="#E6000D"/><path d="M706.079 421.743 695.039 394.8C694.219 394.556 693.365 394.445 692.51 394.471 690.312 394.514 688.143 394.986 686.125 395.86 679.405 398.613 676.425 404.091 665.169 404.607L676.216 431.565C676.838 431.632 677.463 431.665 678.088 431.665 686.408 431.665 690.907 425.382 697.172 422.815 699.198 421.935 701.375 421.46 703.583 421.415 704.427 421.391 705.27 421.502 706.079 421.743ZM675.634 422.234 672.746 415.187C674.564 414.792 676.334 414.205 678.029 413.438L680.859 420.408C680.549 420.548 680.253 420.693 679.928 420.826 678.531 421.394 677.096 421.865 675.634 422.234ZM696.034 420.042C695.957 420.074 695.886 420.115 695.81 420.142L693.072 413.462C691.243 414.36 689.475 415.379 687.78 416.511L687.014 417 689.748 423.671C689.564 423.797 689.376 423.923 689.193 424.049 687.477 425.306 685.656 426.413 683.749 427.355L680.91 420.432C683.024 419.441 685.063 418.295 687.01 417.005L684.11 409.938 683.889 410.08C682.017 411.331 680.058 412.445 678.027 413.416L674.846 405.653C677.004 404.759 679.062 403.64 680.986 402.315L684.11 409.938C686.054 408.639 688.089 407.482 690.199 406.476L687.029 398.74C687.106 398.708 687.177 398.668 687.254 398.64 688.912 397.916 690.694 397.521 692.502 397.476 692.639 397.476 692.767 397.476 692.887 397.484L695.83 404.666C694.238 404.968 692.682 405.432 691.185 406.051 690.848 406.189 690.519 406.332 690.199 406.48L693.064 413.471C693.387 413.318 693.704 413.159 694.041 413.021 695.541 412.384 697.123 411.962 698.741 411.768L701.523 418.556C699.636 418.807 697.79 419.306 696.034 420.042Z" fill="#E6000D"/><path d="M713.246 420.524 724.274 393.613C724.665 392.58 724.144 391.426 723.111 391.035 722.118 390.659 721.003 391.125 720.574 392.097L711.084 415.25 701.6 392.1C701.209 391.067 700.055 390.546 699.022 390.937 697.989 391.328 697.468 392.483 697.859 393.516 697.872 393.549 697.885 393.583 697.9 393.616L708.923 420.524 698.794 445.241C698.351 446.253 698.813 447.432 699.825 447.875 700.837 448.318 702.016 447.856 702.459 446.844 702.471 446.816 702.483 446.787 702.494 446.758L711.084 425.8 719.674 446.76C720.117 447.772 721.296 448.233 722.308 447.791 723.287 447.362 723.756 446.241 723.374 445.243Z" fill="#E6000D"/></g></svg>