<svg width="96" height="96" xmlns="http://www.w3.org/2000/svg" xmlns:xlink="http://www.w3.org/1999/xlink" xml:space="preserve" overflow="hidden"><g transform="translate(-490 -371)"><path d="M563.044 395.861C561.026 394.987 558.857 394.515 556.659 394.472 555.804 394.446 554.95 394.557 554.13 394.801L543.089 421.743C543.9 421.504 544.744 421.396 545.589 421.422 547.797 421.466 549.974 421.94 552 422.818 558.265 425.385 562.763 431.668 571.083 431.668 571.709 431.668 572.334 431.635 572.956 431.568L584 404.608C572.742 404.092 569.763 398.614 563.044 395.861ZM559.975 424.054C559.792 423.928 559.605 423.802 559.421 423.676L562.154 417.005 561.388 416.516C559.695 415.384 557.928 414.365 556.1 413.467L553.363 420.147C553.286 420.115 553.215 420.074 553.138 420.047 551.38 419.31 549.532 418.809 547.643 418.557L550.425 411.769C552.043 411.963 553.625 412.385 555.125 413.022 555.462 413.16 555.779 413.322 556.101 413.472L558.966 406.481C558.645 406.333 558.317 406.19 557.981 406.052 556.484 405.433 554.928 404.969 553.336 404.667L556.279 397.485C556.398 397.485 556.527 397.477 556.664 397.477 558.472 397.522 560.254 397.917 561.911 398.641 561.989 398.673 562.059 398.713 562.136 398.741L558.966 406.477C561.077 407.482 563.112 408.639 565.055 409.939L568.179 402.316C570.103 403.641 572.161 404.759 574.319 405.654L571.141 413.409C569.107 412.44 567.144 411.328 565.268 410.081L565.047 409.939 562.159 417.006C564.109 418.293 566.151 419.433 568.269 420.418L565.419 427.36C563.512 426.417 561.691 425.311 559.975 424.054ZM569.241 420.826C568.908 420.689 568.604 420.541 568.286 420.397L571.147 413.441C572.839 414.207 574.607 414.793 576.422 415.187L573.535 422.234C572.073 421.865 570.638 421.395 569.241 420.826Z"/><path d="M533.079 421.743 522.039 394.8C521.219 394.556 520.365 394.445 519.51 394.471 517.312 394.514 515.143 394.986 513.125 395.86 506.405 398.613 503.425 404.091 492.169 404.607L503.216 431.565C503.838 431.632 504.463 431.665 505.088 431.665 513.408 431.665 517.907 425.382 524.172 422.815 526.198 421.935 528.375 421.46 530.583 421.415 531.427 421.391 532.27 421.502 533.079 421.743ZM502.634 422.234 499.746 415.187C501.564 414.792 503.335 414.205 505.029 413.438L507.859 420.408C507.549 420.548 507.253 420.693 506.928 420.826 505.531 421.394 504.096 421.865 502.634 422.234ZM523.034 420.042C522.957 420.074 522.886 420.115 522.81 420.142L520.072 413.462C518.243 414.36 516.475 415.379 514.78 416.511L514.014 417 516.748 423.671C516.564 423.797 516.376 423.923 516.193 424.049 514.477 425.306 512.656 426.413 510.749 427.355L507.91 420.432C510.025 419.441 512.063 418.295 514.01 417.005L511.11 409.938 510.889 410.08C509.017 411.331 507.058 412.445 505.027 413.416L501.846 405.653C504.004 404.759 506.062 403.64 507.986 402.315L511.11 409.938C513.054 408.639 515.089 407.482 517.199 406.476L514.029 398.74C514.106 398.708 514.177 398.668 514.254 398.64 515.912 397.916 517.694 397.521 519.502 397.476 519.639 397.476 519.767 397.476 519.887 397.484L522.83 404.666C521.238 404.968 519.682 405.432 518.185 406.051 517.848 406.189 517.519 406.332 517.199 406.48L520.064 413.471C520.387 413.318 520.704 413.159 521.041 413.021 522.541 412.384 524.123 411.962 525.741 411.768L528.523 418.556C526.636 418.807 524.79 419.306 523.034 420.042Z"/><path d="M540.246 420.524 551.274 393.613C551.665 392.58 551.144 391.426 550.111 391.035 549.118 390.659 548.003 391.125 547.574 392.097L538.084 415.25 528.6 392.1C528.209 391.067 527.055 390.546 526.022 390.937 524.989 391.328 524.468 392.483 524.859 393.516 524.872 393.549 524.885 393.583 524.9 393.616L535.923 420.524 525.794 445.241C525.351 446.253 525.813 447.432 526.825 447.875 527.837 448.318 529.016 447.856 529.459 446.844 529.471 446.816 529.483 446.787 529.494 446.758L538.084 425.8 546.674 446.76C547.117 447.772 548.296 448.233 549.308 447.791 550.287 447.362 550.756 446.241 550.374 445.243Z"/></g></svg>