<svg width="96" height="96" xmlns="http://www.w3.org/2000/svg" xmlns:xlink="http://www.w3.org/1999/xlink" xml:space="preserve" overflow="hidden"><g transform="translate(-1033 -70)"><path d="M1043 110.8 1037.8 108.7 1037 110.5 1043 112.9 1043 120.8 1037.8 118.7 1037 120.5 1043 122.9 1043 147.1 1043 153.1 1049 153.1 1049 147.1 1057 147.1 1057 153.1 1063 153.1 1063 147.1 1063 101.1 1043 101.1Z" fill="#E6000D"/><path d="M1090 121.1 1103 121.1 1103 125.1 1090 125.1 1090 121.1ZM1067 131.1 1125 131.1 1125 117.1 1067 117.1 1067 131.1Z" fill="#E6000D"/><path d="M1090 139.1 1103 139.1 1103 143.1 1090 143.1 1090 139.1ZM1067 147.1 1067 153.1 1073 153.1 1073 147.1 1119 147.1 1119 153.1 1125 153.1 1125 135.1 1067 135.1 1067 147.1Z" fill="#E6000D"/><path d="M1079 99.1 1122.1 88.9C1123.7 88.5 1124.7 86.9 1124.3 85.3 1124.1 84.5 1123.6 83.8 1123 83.4 1122.3 83 1121.5 82.8 1120.7 83L1077 93.2 1071 93.2C1068.8 93.2 1067 95 1067 97.2L1067 113 1125 113 1125 101 1079 101 1079 99.1Z" fill="#E6000D"/></g></svg>