<svg width="96" height="96" xmlns="http://www.w3.org/2000/svg" xmlns:xlink="http://www.w3.org/1999/xlink" xml:space="preserve" overflow="hidden"><g transform="translate(-842 -70)"><path d="M852 110.8 846.8 108.7 846 110.5 852 112.9 852 120.8 846.8 118.7 846 120.5 852 122.9 852 147.1 852 153.1 858 153.1 858 147.1 866 147.1 866 153.1 872 153.1 872 147.1 872 101.1 852 101.1Z"/><path d="M899 121.1 912 121.1 912 125.1 899 125.1 899 121.1ZM876 131.1 934 131.1 934 117.1 876 117.1 876 131.1Z"/><path d="M899 139.1 912 139.1 912 143.1 899 143.1 899 139.1ZM876 147.1 876 153.1 882 153.1 882 147.1 928 147.1 928 153.1 934 153.1 934 135.1 876 135.1 876 147.1Z"/><path d="M888 99.1 931.1 88.9C932.7 88.5 933.7 86.9 933.3 85.3 933.1 84.5 932.6 83.8 932 83.4 931.3 83 930.5 82.8 929.7 83L886 93.2 880 93.2C877.8 93.2 876 95 876 97.2L876 113 934 113 934 101 888 101 888 99.1Z"/></g></svg>