<svg width="96" height="96" xmlns="http://www.w3.org/2000/svg" xmlns:xlink="http://www.w3.org/1999/xlink" xml:space="preserve" overflow="hidden"><g transform="translate(-484 -267)"><path d="M530 297.1 530 301.1C530.7 301.1 531.3 301 532 301 532.7 301 533.3 301 534 301.1L534 297.1C537.9 297.3 541.6 298.1 545 299.4L543.5 303C544.8 303.5 546 304 547.2 304.6L548.7 300.9C550.6 301.8 552.3 302.9 554 304.1L558.3 299.8C551 294.3 541.9 291 532 291 507.7 291 488 310.7 488 335L488 339 494 339 494 335C494 330.9 494.7 326.9 495.9 323.2L499.6 324.7C500 323.4 500.5 322.2 501 321L497.3 319.5C498.8 316.1 500.9 312.9 503.3 310.2L506.1 313C507 312 507.9 311 508.9 310.1L506.1 307.3C508.8 304.8 511.9 302.6 515.3 300.9L516.8 304.6C518 304 519.2 303.5 520.5 303L519 299.3C522.4 298 526.1 297.3 530 297.1Z"/><path d="M568.1 309.8 563.8 314.1C564.9 315.8 565.9 317.6 566.7 319.4L563 321C563.5 322.2 564 323.5 564.4 324.7L568.1 323.2C569.3 326.9 570 330.9 570 335L570 339 576 339 576 335C576 325.6 573.1 317 568.1 309.8Z"/><path d="M529.2 333.2C529 333.3 528.9 333.5 528.7 333.7 527.3 335.4 527.5 337.9 529.2 339.4 530.9 340.8 533.4 340.6 534.9 338.9L566 302 529.2 333.2Z"/></g></svg>