<svg width="96" height="96" xmlns="http://www.w3.org/2000/svg" xmlns:xlink="http://www.w3.org/1999/xlink" xml:space="preserve" overflow="hidden"><g transform="translate(-663 -267)"><path d="M709 297.1 709 301.1C709.7 301.1 710.3 301 711 301 711.7 301 712.3 301 713 301.1L713 297.1C716.9 297.3 720.6 298.1 724 299.4L722.5 303C723.8 303.5 725 304 726.2 304.6L727.7 300.9C729.6 301.8 731.3 302.9 733 304.1L737.3 299.8C730 294.3 720.9 291 711 291 686.7 291 667 310.7 667 335L667 339 673 339 673 335C673 330.9 673.7 326.9 674.9 323.2L678.6 324.7C679 323.4 679.5 322.2 680 321L676.3 319.5C677.8 316.1 679.9 312.9 682.3 310.2L685.1 313C686 312 686.9 311 687.9 310.1L685.1 307.3C687.8 304.8 690.9 302.6 694.3 300.9L695.8 304.6C697 304 698.2 303.5 699.5 303L698 299.3C701.4 298 705.1 297.3 709 297.1Z" fill="#E6000D"/><path d="M747.1 309.8 742.8 314.1C743.9 315.8 744.9 317.6 745.7 319.4L742 321C742.5 322.2 743 323.5 743.4 324.7L747.1 323.2C748.3 326.9 749 330.9 749 335L749 339 755 339 755 335C755 325.6 752.1 317 747.1 309.8Z" fill="#E6000D"/><path d="M708.2 333.2C708 333.3 707.9 333.5 707.7 333.7 706.3 335.4 706.5 337.9 708.2 339.4 709.9 340.8 712.4 340.6 713.9 338.9L745 302 708.2 333.2Z" fill="#E6000D"/></g></svg>