<svg width="96" height="96" xmlns="http://www.w3.org/2000/svg" xmlns:xlink="http://www.w3.org/1999/xlink" xml:space="preserve" overflow="hidden"><g transform="translate(-646 -172)"><path d="M694 197C681.3 197 669.8 202.2 661.5 210.5L667.2 216.2C674 209.3 683.5 205 694 205 704.5 205 714 209.3 720.9 216.1L726.6 210.4C718.1 202.2 706.7 197 694 197Z" fill="#E6000D"/><path d="M670 219 675.7 224.7C680.2 219.9 686.8 217 694 217 701.2 217 707.7 219.9 712.4 224.6L718 219C711.8 212.8 703.3 209 694 209 684.7 209 676.1 212.8 670 219Z" fill="#E6000D"/><path d="M678.5 227.5 684.2 233.2C686.7 230.7 690.2 229.1 694.1 229.1 698 229.1 701.5 230.7 704 233.2L709.7 227.5C705.7 223.5 700.2 221 694.2 221 688.2 221 682.4 223.5 678.5 227.5Z" fill="#E6000D"/><path d="M686.9 235.9 694 243 701.1 235.9C699.2 234.1 696.8 233 694 233 691.2 233 688.7 234.1 686.9 235.9Z" fill="#E6000D"/></g></svg>