<svg width="96" height="96" xmlns="http://www.w3.org/2000/svg" xmlns:xlink="http://www.w3.org/1999/xlink" xml:space="preserve" overflow="hidden"><g transform="translate(-480 -172)"><path d="M528 197C515.3 197 503.8 202.2 495.5 210.5L501.2 216.2C508 209.3 517.5 205 528 205 538.5 205 548 209.3 554.9 216.1L560.6 210.4C552.1 202.2 540.7 197 528 197Z"/><path d="M504 219 509.7 224.7C514.2 219.9 520.8 217 528 217 535.2 217 541.7 219.9 546.4 224.6L552 219C545.8 212.8 537.3 209 528 209 518.7 209 510.1 212.8 504 219Z"/><path d="M512.5 227.5 518.2 233.2C520.7 230.7 524.2 229.1 528.1 229.1 532 229.1 535.5 230.7 538 233.2L543.7 227.5C539.7 223.5 534.2 221 528.2 221 522.2 221 516.4 223.5 512.5 227.5Z"/><path d="M520.9 235.9 528 243 535.1 235.9C533.2 234.1 530.8 233 528 233 525.2 233 522.7 234.1 520.9 235.9Z"/></g></svg>